<svg  viewBox="0 0 1024 1024" fill="none" xmlns="http://www.w3.org/2000/svg">
<path d="M512 2C793.665 2 1022 230.335 1022 512C1022 793.665 793.665 1022 512 1022C463.616 1022 416.806 1015.26 372.456 1002.67C330.606 954.951 319.151 936.841 308.596 903.282C304.515 890.309 304.65 886.404 309.496 877.181C326.423 844.968 393.803 786.367 441.368 762.489C497.124 734.5 571.654 722.89 649.514 730.065C735.771 738.014 757.331 738.708 778.84 734.226C817.698 726.127 875.481 681.958 882.807 654.753C889.291 630.671 881.536 621.388 816.587 575.489C752.508 530.206 729.033 506.948 700.835 460.803C688.669 440.894 670.751 419.191 650.163 399.426C623.739 374.058 611.668 365.643 579.31 350.035L540.306 331.222L547.684 307.933C557.99 275.397 555.923 210.209 543.845 186.817C533.724 167.218 520.645 158.041 507.524 161.334C479.084 168.472 437.858 229.679 433.259 271.593C428.11 318.516 429.188 316.338 411.101 316.338C393.119 316.338 390.362 313.029 390.362 291.438C390.362 234.554 328.961 156 284.498 156C250.55 156 221.894 234.411 230.048 304.995C231.835 320.462 237.012 342.006 241.553 352.869C246.359 364.368 248.401 373.893 246.441 375.663C221.793 397.93 179.834 432.909 166.635 442.194C131.327 467.03 99.2292 467.34 6.94727 440.682C41.6358 192.779 254.538 2 512 2ZM421.567 368.59C496.154 368.687 565.627 391.94 610.982 431.989C623.372 442.929 643.659 467.984 660.026 492.56C697.489 548.808 712.299 564.85 756.026 596.541C792.238 622.785 793.1 623.752 790.874 635.619C789.405 643.45 790.737 652.09 794.613 659.859C801.881 674.428 800.465 675.69 768.677 682.968C749.805 687.289 739.509 687.343 705.287 683.3C649.087 676.66 558.935 676.76 520.427 683.504C467.507 692.772 411.085 715.123 375.716 740.83C336.065 769.649 252.066 855.066 202.036 917.029C80.4199 823.817 2 677.067 2 512C2 505.737 2.11405 499.501 2.33789 493.293C20.2539 498.301 41.7033 503.621 57.2656 506.809C127.453 521.183 164.207 512.013 217.845 466.744C235.823 451.571 257.848 432.983 266.788 425.438L283.042 411.721L290.256 421.622C299.664 434.537 319.825 446.846 331.571 446.846C350.977 446.846 370.265 422.258 379.439 385.822L383.79 368.541L421.567 368.59ZM541.379 465.08C520.504 455.446 502.862 456.361 479.18 468.307C462.644 476.647 456.055 478.091 444.163 475.979C403.045 468.676 382.905 475.075 382.905 495.441C382.905 508.446 386.743 511.404 420.169 524.16C444.691 533.518 448.082 536.007 450.846 546.672C455.181 563.401 476.699 583.675 495.492 588.735C507.262 591.905 515.891 591.877 530.011 588.626C566.635 580.193 570.006 580.456 597.311 593.888C614.215 602.203 628.011 606.479 636.463 606.023C648.623 605.368 649.59 604.395 650.645 591.771C651.855 577.277 645.655 570.417 602.969 539.026C590.717 530.017 584.424 521.793 579.403 508.23C571.018 485.578 560.891 474.086 541.379 465.08ZM500.498 525.301C485.297 508.503 507.952 485.848 524.749 501.05C534.024 509.444 533.985 515.764 524.599 525.15C515.212 534.537 508.892 534.576 500.498 525.301Z" fill="white"/>
</svg>
